<?xml version="1.0" encoding="UTF-8"?>
<svg width="512px" height="512px" viewBox="0 0 512 512" version="1.1" xmlns="http://www.w3.org/2000/svg" xmlns:xlink="http://www.w3.org/1999/xlink">
    <title>512x512 (Android)@2x</title>
    <defs>
        <radialGradient cx="50%" cy="50%" fx="50%" fy="50%" r="50%" id="radialGradient-1">
            <stop stop-color="#C92FE0" offset="0%"></stop>
            <stop stop-color="#561798" offset="100%"></stop>
        </radialGradient>
    </defs>
    <g id="512x512-(Android)" stroke="none" stroke-width="1" fill="none" fill-rule="evenodd">
        <g id="Group" transform="translate(71, 76)">
            <path d="M327.367062,75.2529332 C377.960781,131.852933 374.268426,206.142933 362.824944,249.372933 C352.51743,288.285098 328.751917,328.784549 240.131131,339.657449 C226.581078,352.199029 207.561141,360 186.5,360 C165.66556,360 146.828618,352.366063 133.308289,340.060891 C41.8514162,329.825192 17.6054478,288.7849 7.17505622,249.372933 C-4.26842566,206.142933 -7.96078065,131.852933 42.6329385,75.2529332 C93.2172623,18.6629332 185,35.7529332 185,35.7529332 C185,35.7529332 276.782738,18.6529332 327.367062,75.2529332 Z" id="Path-2" stroke="#3C3B3A" stroke-width="7" fill="#CC2B30" fill-rule="nonzero"></path>
            <path d="M199.87,266.582933 C199.87,266.582933 192.39,292.172933 185,292.113039 C177.61,292.052933 170.65,266.582933 170.65,266.582933" id="Path" stroke="#3E3A39" stroke-width="7"></path>
            <path d="M194.52832,6.7734647 L199.113221,20.8883124 C200.276761,24.4620423 203.601161,26.8722322 207.354962,26.8722322 L222.203948,26.8722322 C231.69234,26.8722322 235.640064,39.0201433 227.966241,44.588513 L215.956847,53.3150627 C212.923332,55.5174776 211.648979,59.4374991 212.812519,63.0112289 L217.39742,77.1260766 C220.333973,86.1573629 210.000631,93.6511142 202.326808,88.0827445 L190.317413,79.3561949 C187.283898,77.15378 183.169953,77.15378 180.122587,79.3561949 L168.113192,88.0827445 C160.439369,93.6649659 150.106027,86.1573629 153.04258,77.1260766 L157.627481,63.0112289 C158.791021,59.4374991 157.516668,55.5313292 154.483153,53.3150627 L142.473759,44.588513 C134.799936,39.0062916 138.74766,26.8722322 148.236052,26.8722322 L163.085038,26.8722322 C166.838839,26.8722322 170.163239,24.4481906 171.326779,20.8883124 L175.91168,6.7734647 C178.848234,-2.25782157 191.605618,-2.25782157 194.542171,6.7734647 L194.52832,6.7734647 Z" id="Path" stroke="#315438" stroke-width="7" fill="#295F3C" fill-rule="nonzero"></path>
            <circle id="Oval" fill="url(#radialGradient-1)" fill-rule="nonzero" cx="118" cy="193.532933" r="32.04"></circle>
            <path d="M144.8,152.022933 L91.02,128.532933 C88.85,127.582933 87.87,125.042933 88.85,122.882933 L95.13,109.082933 C96.18,106.782933 98.99,105.902933 101.16,107.182933 L152.12,137.342933 C154.02,138.472933 154.74,140.872933 153.78,142.862933 L150.31,149.992933 C149.31,152.042933 146.88,152.942933 144.79,152.032933 L144.8,152.022933 Z" id="Path" fill="#3E3A39" fill-rule="nonzero"></path>
            <circle id="Oval" fill="url(#radialGradient-1)" fill-rule="nonzero" cx="251.99" cy="193.532933" r="32.04"></circle>
            <path d="M255.983345,178.209386 L257.817306,183.855325 C258.282722,185.284817 259.612482,186.248893 261.114003,186.248893 L267.053597,186.248893 C270.848953,186.248893 272.428043,191.108057 269.358514,193.335405 L264.554756,196.826025 C263.34135,197.706991 262.831609,199.275 263.297025,200.704492 L265.130986,206.350431 C266.305607,209.962945 262.17227,212.960446 259.102741,210.733098 L254.298983,207.242478 C253.085577,206.361512 251.439999,206.361512 250.221052,207.242478 L245.417295,210.733098 C242.347765,212.965986 238.214428,209.962945 239.389049,206.350431 L241.22301,200.704492 C241.688426,199.275 241.178685,197.712532 239.965279,196.826025 L235.161521,193.335405 C232.091992,191.102517 233.671082,186.248893 237.466438,186.248893 L243.406033,186.248893 C244.907553,186.248893 246.237313,185.279276 246.702729,183.855325 L248.53669,178.209386 C249.711311,174.596871 254.814265,174.596871 255.988886,178.209386 L255.983345,178.209386 Z" id="Path" fill="#FFFFFF" fill-rule="nonzero"></path>
            <path d="M121.983345,178.209386 L123.817306,183.855325 C124.282722,185.284817 125.612482,186.248893 127.114003,186.248893 L133.053597,186.248893 C136.848953,186.248893 138.428043,191.108057 135.358514,193.335405 L130.554756,196.826025 C129.34135,197.706991 128.831609,199.275 129.297025,200.704492 L131.130986,206.350431 C132.305607,209.962945 128.17227,212.960446 125.102741,210.733098 L120.298983,207.242478 C119.085577,206.361512 117.439999,206.361512 116.221052,207.242478 L111.417295,210.733098 C108.347765,212.965986 104.214428,209.962945 105.389049,206.350431 L107.22301,200.704492 C107.688426,199.275 107.178685,197.712532 105.965279,196.826025 L101.161521,193.335405 C98.0919918,191.102517 99.6710817,186.248893 103.466438,186.248893 L109.406033,186.248893 C110.907553,186.248893 112.237313,185.279276 112.702729,183.855325 L114.53669,178.209386 C115.711311,174.596871 120.814265,174.596871 121.988886,178.209386 L121.983345,178.209386 Z" id="Path" fill="#FFFFFF" fill-rule="nonzero"></path>
            <path d="M225.71,152.022933 L279.49,128.532933 C281.66,127.582933 282.64,125.042933 281.66,122.882933 L275.38,109.082933 C274.33,106.782933 271.52,105.902933 269.35,107.182933 L218.39,137.342933 C216.49,138.472933 215.77,140.872933 216.73,142.862933 L220.2,149.992933 C221.2,152.042933 223.63,152.942933 225.72,152.032933 L225.71,152.022933 Z" id="Path" fill="#3E3A39" fill-rule="nonzero"></path>
        </g>
    </g>
</svg>